<svg width="105" height="38" viewBox="0 0 105 38" fill="none" xmlns="http://www.w3.org/2000/svg">
<path d="M3 16.5L0.500003 16.5L0.499997 21.5L3 21.5L3 16.5ZM104.268 20.7679C105.244 19.7916 105.244 18.2087 104.268 17.2324L88.3579 1.32243C87.3816 0.346122 85.7987 0.34612 84.8224 1.32243C83.846 2.29874 83.846 3.88165 84.8223 4.85796L98.9645 19.0001L84.8223 33.1422C83.846 34.1185 83.846 35.7015 84.8223 36.6778C85.7986 37.6541 87.3815 37.6541 88.3578 36.6778L104.268 20.7679ZM3 21.5L102.5 21.5001L102.5 16.5001L3 16.5L3 21.5Z" fill="#685D4B"/>
</svg>
